{"title":"World War Z 2013 CAM XviD-THC","uid":8633782,"size":1619341938,"categoryP":"video","categoryS":"movies","magnet":"?xt=urn:btih:914f54f08197dfcbe9e2081275948a4e317e9fe9&amp;dn=World+War+Z+2013+CAM+XviD-THC&amp;tr=udp%3A%2F%2Ftracker.openbittorrent.com%3A80&amp;tr=udp%3A%2F%2Fopen.demonii.com%3A1337&amp;tr=udp%3A%2F%2Ftracker.coppersurfer.tk%3A6969&amp;tr=udp%3A%2F%2Fexodus.desync.com%3A6969","seeders":2,"leechers":0,"uploader":"xxxlavalxxx","files":-1,"time":1372699860,"description":"\n &lt;a href=&quot;\nhttp://www.imdb.com/title/tt0816711/&quot; rel=&quot;nofollow&quot; target=&quot;_NEW&quot;&gt;\nhttp://www.imdb.com/title/tt0816711/&lt;/a&gt;\n\n\n\nUnited Nations employee Gerry Lane traverses the world in a race against time to stop the Zombie pandemic that is toppling armies and governments, and threatening to destroy humanity itself. \n\n\n\nDirector:\n Marc Forster \n\nWriters:\n Matthew Michael Carnahan (screenplay), Drew Goddard (screenplay)\n\nStars:\n Brad Pitt, Mireille Enos, Daniella Kertesz\n\nGenres:\n  Action |  Drama |  Horror |  Sci-Fi |  Thriller \n\n\nSource: THC\n Audio: THC &amp; NOGRP\n &lt;a href=&quot;\nhttp://www.imdb.com/title/tt0816711/&quot; rel=&quot;nofollow&quot; target=&quot;_NEW&quot;&gt;\nhttp://www.imdb.com/title/tt0816711/&lt;/a&gt;\n\n Format                           : AVI\n Format/Info                      : Audio Video Interleave\n File size                        : 1.49 GiB\n Duration                         : 1h 48mn\n Overall bit rate                 : 1 967 Kbps\n Writing library                  : VirtualDub build 35390/release\n\n Video\n ID                               : 0\n Format                           : MPEG-4 Visual\n Format profile                   : Advanced Simple@L5\n Format settings, BVOP            : Yes\n Format settings, QPel            : No\n Format settings, GMC             : No warppoints\n Format settings, Matrix          : Default (H.263)\n Muxing mode                      : Packed bitstream\n Codec ID                         : XVID\n Codec ID/Hint                    : XviD\n Duration                         : 1h 48mn\n Bit rate                         : 1 830 Kbps\n Width                            : 720 pixels\n Height                           : 304 pixels\n Display aspect ratio             : 2.35:1\n Frame rate                       : 24.000 fps\n Color space                      : YUV\n Chroma subsampling               : 4:2:0\n Bit depth                        : 8 bits\n Scan type                        : Progressive\n Bits/(Pixel*Frame)               : 0.348\n Stream size                      : 1.39 GiB (93%)\n Writing library                  : XviD 1.2.1 (UTC 2008-12-04)\n\n Audio\n ID                               : 1\n Format                           : MPEG Audio\n Format version                   : Version 1\n Format profile                   : Layer 3\n Mode                             : Joint stereo\n Mode extension                   : MS Stereo\n Codec ID                         : 55\n Codec ID/Hint                    : MP3\n Duration                         : 1h 48mn\n Bit rate mode                    : Constant\n Bit rate                         : 128 Kbps\n Channel(s)                       : 2 channels\n Sampling rate                    : 48.0 KHz\n Stream size                      : 99.5 MiB (7%)\n Alignment                        : Split accross interleaves\n Interleave, duration             : 42 ms (1.00 video frame)\n Interleave, preload duration     : 500 ms\n\n Note:\n Well...We not going to go into details on whats been done this time around... To much to say and went threw hell. Video has been adjusted for light and dark scenes and very very watchable...Our rating I would say V8 A6. So Please be thankful and leave a comment and even a Rep point if possible and also want to thank everyone who follows THC\n\n\n\n//bayimg.com/kANKbaaEI\n//bayimg.com/KAnKcaAei\n//bayimg.com/kAnKdAAEi","torrent":{"xt":"urn:btih:914f54f08197dfcbe9e2081275948a4e317e9fe9","amp;dn":"World+War+Z+2013+CAM+XviD-THC","amp;tr":["udp%3A%2F%2Ftracker.openbittorrent.com%3A80","udp%3A%2F%2Fopen.demonii.com%3A1337","udp%3A%2F%2Ftracker.coppersurfer.tk%3A6969","udp%3A%2F%2Fexodus.desync.com%3A6969"],"infoHash":"914f54f08197dfcbe9e2081275948a4e317e9fe9","infoHashBuffer":{"type":"Buffer","data":[145,79,84,240,129,151,223,203,233,226,8,18,117,148,138,78,49,126,159,233]},"announce":[],"urlList":[]}}